<?xml version="1.0" encoding="UTF-8" standalone="no"?>
<svg
   width="1600px"
   height="1200px"
   viewBox="0 0 1600 1200"
   version="1.1"
   id="svg97"
   sodipodi:docname="automate.svg"
   inkscape:version="1.3.2 (1:1.3.2+202311252150+091e20ef0f)"
   xmlns:inkscape="http://www.inkscape.org/namespaces/inkscape"
   xmlns:sodipodi="http://sodipodi.sourceforge.net/DTD/sodipodi-0.dtd"
   xmlns="http://www.w3.org/2000/svg"
   xmlns:svg="http://www.w3.org/2000/svg"
   xmlns:rdf="http://www.w3.org/1999/02/22-rdf-syntax-ns#"
   xmlns:cc="http://creativecommons.org/ns#"
   xmlns:dc="http://purl.org/dc/elements/1.1/">
  <defs
     id="defs97">
    <filter
       id="a"
       color-interpolation-filters="sRGB"
       x="-0.010993516"
       y="-0.013373975"
       width="1.0311483"
       height="1.0378929">
      <feFlood
         flood-color="rgb(0,0,0)"
         flood-opacity=".5"
         result="flood"
         id="feFlood6" />
      <feComposite
         in="flood"
         in2="SourceGraphic"
         operator="in"
         result="composite1"
         id="feComposite7" />
      <feGaussianBlur
         in="composite"
         result="blur"
         stdDeviation="2"
         id="feGaussianBlur7" />
      <feOffset
         dx="4"
         dy="4"
         result="offset"
         id="feOffset7" />
      <feComposite
         in="SourceGraphic"
         in2="offset"
         result="composite2"
         id="feComposite8" />
    </filter>
    <filter
       id="b"
       color-interpolation-filters="sRGB"
       x="-0.014210349"
       y="-0.011188811"
       width="1.0402627"
       height="1.0317016">
      <feFlood
         flood-color="rgb(0,0,0)"
         flood-opacity=".5"
         result="flood"
         id="feFlood4" />
      <feComposite
         in="flood"
         in2="SourceGraphic"
         operator="in"
         result="composite1"
         id="feComposite5" />
      <feGaussianBlur
         in="composite"
         result="blur"
         stdDeviation="2"
         id="feGaussianBlur5" />
      <feOffset
         dx="4"
         dy="4"
         result="offset"
         id="feOffset5" />
      <feComposite
         in="SourceGraphic"
         in2="offset"
         result="composite2"
         id="feComposite6" />
    </filter>
    <filter
       id="c"
       color-interpolation-filters="sRGB"
       x="-0.010930797"
       y="-0.01411636"
       width="1.0309706"
       height="1.0399964">
      <feFlood
         flood-color="rgb(0,0,0)"
         flood-opacity=".5"
         result="flood"
         id="feFlood2" />
      <feComposite
         in="flood"
         in2="SourceGraphic"
         operator="in"
         result="composite1"
         id="feComposite3" />
      <feGaussianBlur
         in="composite"
         result="blur"
         stdDeviation="2"
         id="feGaussianBlur3" />
      <feOffset
         dx="4"
         dy="4"
         result="offset"
         id="feOffset3" />
      <feComposite
         in="SourceGraphic"
         in2="offset"
         result="composite2"
         id="feComposite4" />
    </filter>
    <filter
       id="d"
       color-interpolation-filters="sRGB"
       x="-0.013730331"
       y="-0.010818389"
       width="1.0389026"
       height="1.0306521">
      <feFlood
         flood-color="rgb(0,0,0)"
         flood-opacity=".5"
         result="flood"
         id="feFlood1" />
      <feComposite
         in="flood"
         in2="SourceGraphic"
         operator="in"
         result="composite1"
         id="feComposite1" />
      <feGaussianBlur
         in="composite"
         result="blur"
         stdDeviation="2"
         id="feGaussianBlur1" />
      <feOffset
         dx="4"
         dy="4"
         result="offset"
         id="feOffset1" />
      <feComposite
         in="SourceGraphic"
         in2="offset"
         result="composite2"
         id="feComposite2" />
    </filter>
  </defs>
  <sodipodi:namedview
     id="namedview97"
     pagecolor="#ffffff"
     bordercolor="#000000"
     borderopacity="0.25"
     inkscape:showpageshadow="2"
     inkscape:pageopacity="0.0"
     inkscape:pagecheckerboard="0"
     inkscape:deskcolor="#d1d1d1"
     inkscape:zoom="0.300625"
     inkscape:cx="1127.6507"
     inkscape:cy="359.25156"
     inkscape:window-width="1850"
     inkscape:window-height="1016"
     inkscape:window-x="0"
     inkscape:window-y="0"
     inkscape:window-maximized="1"
     inkscape:current-layer="svg97" />
  <title
     id="title1">pointing</title>
  <metadata
     id="metadata1">
    <rdf:RDF>
      <cc:Work
         rdf:about="">
        <dc:title>pointing</dc:title>
      </cc:Work>
    </rdf:RDF>
  </metadata>
  <g
     id="g3"
     transform="matrix(1.0789115,0,0,1.0789115,-63.129208,-44.233414)">
    <g
       transform="matrix(18.485571,0,0,18.485571,-1700.6982,-6598.193)"
       id="g31">
      <rect
         x="101.62"
         y="362.35999"
         width="66.346001"
         height="42.721001"
         rx="2"
         ry="2"
         fill="#cccccc"
         id="rect1"
         style="fill:#000000;fill-opacity:1" />
      <rect
         x="105.18"
         y="366.23999"
         width="59.226002"
         height="34.630001"
         rx="2"
         ry="2"
         fill="#ffffff"
         id="rect2" />
      <path
         d="m 103.3,405.73 h 63.965 c 1.108,0 1.7805,1.0456 2.3433,2 l 5.6567,9.5929 c 0.5628,0.95442 -0.892,2 -2,2 H 97.3 c -1.108,0 -2.5876,-1.0606 -2,-2 l 6,-9.5929 c 0.58755,-0.93939 0.892,-2 2,-2 z"
         fill="#cccccc"
         id="path2"
         style="fill:#000000;fill-opacity:1" />
      <g
         fill="#ffffff"
         fill-rule="evenodd"
         stroke="#cccccc"
         stroke-width="1px"
         id="g30"
         style="fill:#000000;fill-opacity:1;stroke:#ffffff;stroke-opacity:1">
        <path
           d="m 101.51,415.59 1.5069,-2.7826 h 5.1817 l -1.2729,2.7826 z"
           id="path3"
           style="fill:#000000;fill-opacity:1;stroke:#ffffff;stroke-opacity:1" />
        <path
           d="m 103.02,412.8 1.5735,-2.9057 h 4.9374 l -1.3292,2.9057 z"
           id="path4"
           style="fill:#000000;fill-opacity:1;stroke:#ffffff;stroke-opacity:1" />
        <path
           d="m 104.59,409.9 1.2033,-2.2219 h 4.7506 l -1.0164,2.2219 z"
           id="path5"
           style="fill:#000000;fill-opacity:1;stroke:#ffffff;stroke-opacity:1" />
        <path
           d="m 110.54,407.68 h 4.9599 l -0.82143,2.2219 h -5.1549 z"
           id="path6"
           style="fill:#000000;fill-opacity:1;stroke:#ffffff;stroke-opacity:1" />
        <path
           d="m 109.53,409.9 -1.3292,2.9057 h 5.41 L 114.685,409.9 Z"
           id="path7"
           style="fill:#000000;fill-opacity:1;stroke:#ffffff;stroke-opacity:1" />
        <path
           d="m 108.2,412.8 -1.2729,2.7826 h 5.6542 L 113.61,412.8 Z"
           id="path8"
           style="fill:#000000;fill-opacity:1;stroke:#ffffff;stroke-opacity:1" />
        <path
           d="m 112.58,415.59 h 5.7148 l 0.78182,-2.7826 h -5.468 z"
           id="path9"
           style="fill:#000000;fill-opacity:1;stroke:#ffffff;stroke-opacity:1" />
        <path
           d="m 113.61,412.8 1.0742,-2.9057 h 5.2102 l -0.81641,2.9057 z"
           id="path10"
           style="fill:#000000;fill-opacity:1;stroke:#ffffff;stroke-opacity:1" />
        <path
           d="m 114.68,409.9 0.82143,-2.2219 h 5.0131 l -0.62431,2.2219 h -5.2102 z"
           id="path11"
           style="fill:#000000;fill-opacity:1;stroke:#ffffff;stroke-opacity:1" />
        <path
           d="m 120.52,407.68 h 5.2083 l -0.4195,2.2219 h -5.4132 z"
           id="path12"
           style="fill:#000000;fill-opacity:1;stroke:#ffffff;stroke-opacity:1" />
        <path
           d="m 119.89,409.9 -0.81641,2.9057 h 5.681 l 0.54858,-2.9057 z"
           id="path13"
           style="fill:#000000;fill-opacity:1;stroke:#ffffff;stroke-opacity:1" />
        <path
           d="m 118.29,415.59 0.78182,-2.7826 h 30.852 l 0.61106,2.7826 z"
           id="path14"
           style="fill:#000000;fill-opacity:1;stroke:#ffffff;stroke-opacity:1" />
        <path
           d="m 124.76,412.8 0.54858,-2.9057 h 5.5372 l -0.27462,2.9057 z"
           id="path15"
           style="fill:#000000;fill-opacity:1;stroke:#ffffff;stroke-opacity:1" />
        <path
           d="m 125.31,409.9 0.4195,-2.2219 h 5.3277 l -0.21,2.2219 z"
           id="path16"
           style="fill:#000000;fill-opacity:1;stroke:#ffffff;stroke-opacity:1" />
        <path
           d="m 130.57,412.8 h 5.8253 v -2.9057 h -5.5506 l -0.27462,2.9057 z"
           id="path17"
           style="fill:#000000;fill-opacity:1;stroke:#ffffff;stroke-opacity:1" />
        <path
           d="m 130.84,409.9 0.21,-2.2219 h 5.3406 V 409.9 Z"
           id="path18"
           style="fill:#000000;fill-opacity:1;stroke:#ffffff;stroke-opacity:1" />
        <path
           d="m 136.39,407.68 h 6.2787 l 0.24689,2.2219 h -6.5256 z"
           id="path19"
           style="fill:#000000;fill-opacity:1;stroke:#ffffff;stroke-opacity:1" />
        <path
           d="m 136.39,409.9 v 2.9057 h 6.8484 L 142.91554,409.9 Z"
           id="path20"
           style="fill:#000000;fill-opacity:1;stroke:#ffffff;stroke-opacity:1" />
        <path
           d="m 142.67,407.68 h 6.1301 l 0.48793,2.2219 h -6.3711 z"
           id="path21"
           style="fill:#000000;fill-opacity:1;stroke:#ffffff;stroke-opacity:1" />
        <path
           d="m 142.92,409.9 0.32286,2.9057 h 6.6864 L 149.29118,409.9 Z"
           id="path22"
           style="fill:#000000;fill-opacity:1;stroke:#ffffff;stroke-opacity:1" />
        <path
           d="m 149.93,412.8 0.61106,2.7826 h 6.5614 L 156.20798,412.8 Z"
           id="path23"
           style="fill:#000000;fill-opacity:1;stroke:#ffffff;stroke-opacity:1" />
        <path
           d="m 149.93,412.8 -0.63808,-2.9057 h 5.9821 l 0.93405,2.9057 z"
           id="path24"
           style="fill:#000000;fill-opacity:1;stroke:#ffffff;stroke-opacity:1" />
        <path
           d="m 149.29,409.9 -0.48793,-2.2219 h 5.7557 l 0.71426,2.2219 z"
           id="path25"
           style="fill:#000000;fill-opacity:1;stroke:#ffffff;stroke-opacity:1" />
        <path
           d="m 154.56,407.68 h 5.6459 l 0.93626,2.2219 h -5.8679 z"
           id="path26"
           style="fill:#000000;fill-opacity:1;stroke:#ffffff;stroke-opacity:1" />
        <path
           d="m 155.27,409.9 0.93405,2.9057 h 6.1582 l -1.2244,-2.9057 z"
           id="path27"
           style="fill:#000000;fill-opacity:1;stroke:#ffffff;stroke-opacity:1" />
        <path
           d="m 156.21,412.8 0.89448,2.7826 h 6.4362 l -1.1725,-2.7826 z"
           id="path28"
           style="fill:#000000;fill-opacity:1;stroke:#ffffff;stroke-opacity:1" />
        <path
           d="m 163.54,415.59 h 6.0271 l -2.9291,-5.6882 h -5.4949 z"
           id="path29"
           style="fill:#000000;fill-opacity:1;stroke:#ffffff;stroke-opacity:1" />
        <path
           d="m 161.14,409.9 -0.93626,-2.2219 h 5.287 l 1.1442,2.2219 z"
           id="path30"
           style="fill:#000000;fill-opacity:1;stroke:#ffffff;stroke-opacity:1" />
      </g>
    </g>
    <g
       id="g1"
       transform="matrix(0.8133819,0,0,0.8133819,153.53738,123.57087)">
      <path
         d="m 818.26651,119.25642 c 26.469,30.479 52.94,60.956 79.406,91.438 -25.934,26.361 -51.885,52.695 -77.844,79.031 69.964,14.561 124.01,72.514 132.78,144.44 h -43.75 l 115.80999,114.09 131.38,-114.09 h -34.219 c -10.005,-165.64 -139.58999,-299 -303.55999,-314.91 z"
         fill-opacity="0.96471"
         filter="url(#b)"
         id="path8-3"
         style="fill:#358830;fill-opacity:1" />
      <path
         d="m 775.41651,79.037417 v 38.750003 c -168.54,4.8779 -306.11,133.45 -325.03,298.09 29.11,-25.28 58.244,-50.569 87.281,-75.781 l 0.65625,-0.5625 0.75,-0.65625 c 27.171,26.71 54.33,53.445 81.469,80.188 15.72,-72.81 78.474,-128.13 154.88,-132.56 v 39.719 l 114.09,-115.81 -114.09,-131.380003 z"
         fill-rule="evenodd"
         filter="url(#c)"
         id="path9-6"
         style="fill:#358830;fill-opacity:1" />
      <path
         d="m 538.79651,347.04142 -131.34,114.06 h 40.781 c 3.1989,173.8 137.92,315.43 308.81,329.62 -26.595,-30.624 -53.189,-61.249 -79.781,-91.875 25.711,-26.122 51.432,-52.235 77.156,-78.344 -76.331,-14.144 -134.62,-79.701 -137.56,-159.41 h 37.781 l -115.84,-114.06 z"
         fill-rule="evenodd"
         filter="url(#d)"
         id="path10-7"
         style="fill:#358830;fill-opacity:1" />
      <path
         d="m 1122.0465,471.60142 c -32.553,28.27 -65.101,56.545 -97.656,84.812 -24.374,-23.991 -48.76099,-47.968 -73.12499,-71.969 -13.208,74.403 -75.201,131.93 -151.75,138.31 v -39.438 l -114.09,115.81 114.09,131.38 v -38.906 c 174.03,-7.2123 313.99999,-146.32 322.52999,-320 z"
         fill-rule="evenodd"
         filter="url(#a)"
         id="path11-5"
         style="fill:#358830;fill-opacity:1" />
    </g>
    <g
       transform="matrix(0.38825757,0.27456609,-0.27456609,0.38825757,715.0419,384.26834)"
       id="g2">
      <path
         d="m 248.66,-97 -8.125,46.281 0.032,0.031 c -9.932,1.6228 -19.541,4.2238 -28.719,7.6875 v -0.03099 l -30.156,-36.031 -28.344,16.375 16.094,44.125 0.062,0.031 c -7.684,6.3076 -14.727,13.375 -21.031,21.063 l -0.031,-0.094 -44.125,-16.094 -16.375,28.344 36.031,30.188 c -3.458,9.1707 -6.036,18.765 -7.656,28.688 l -0.032,-0.031 -46.281,8.125 v 32.75 l 46.281,8.125 0.032,-0.031 c 1.62,9.9223 4.198,19.517 7.656,28.688 l -36.031,30.187 16.375,28.344 44.125,-16.094 0.031,-0.094 c 6.304,7.687 13.347,14.755 21.031,21.063 l -0.062,0.031 -16.094,44.125 28.344,16.375 30.156,-36.031 v -0.032 c 9.178,3.464 18.787,6.065 28.719,7.688 l -0.032,0.031 8.125,46.281 h 32.719 l 8.125,-46.281 -0.031,-0.031 c 9.929,-1.618 19.541,-4.198 28.719,-7.656 l 30.187,36.031 28.344,-16.375 -16.125,-44.125 c 7.667,-6.291 14.706,-13.335 21,-21 l 44.156,16.094 16.344,-28.344 -36,-30.188 c 3.459,-9.1714 6.067,-18.763 7.687,-28.687 l 46.282,-8.0937 V 81.657842 l -46.282,-8.125 c -1.621,-9.9131 -4.232,-19.494 -7.687,-28.656 l 36,-30.188 -16.344,-28.344 -44.156,16.094 c -6.294,-7.6652 -13.333,-14.708 -21,-21 l 16.125,-44.126 -28.344,-16.375 -30.187,36.032 c -9.178,-3.4583 -18.79,-6.0378 -28.719,-7.6562 l 0.031,-0.031 -8.125,-46.282 H 248.66 Z m 16.375,79.688 c 63.71,0 115.38,51.634 115.38,115.34 0,63.71 -51.665,115.34 -115.38,115.34 -63.71,0 -115.34,-51.634 -115.34,-115.34 0,-63.71 51.633,-115.34 115.34,-115.34 z"
         stroke-linecap="round"
         stroke-linejoin="round"
         stroke-width="2"
         id="path1" />
    </g>
  </g>
</svg>
