<?xml version="1.0" encoding="UTF-8" standalone="no"?>
<svg
   width="100"
   height="100"
   version="1.1"
   id="svg5"
   sodipodi:docname="transparent.svg"
   inkscape:version="1.3.2 (1:1.3.2+202311252150+091e20ef0f)"
   xml:space="preserve"
   xmlns:inkscape="http://www.inkscape.org/namespaces/inkscape"
   xmlns:sodipodi="http://sodipodi.sourceforge.net/DTD/sodipodi-0.dtd"
   xmlns="http://www.w3.org/2000/svg"
   xmlns:svg="http://www.w3.org/2000/svg"><defs
     id="defs5" /><sodipodi:namedview
     id="namedview5"
     pagecolor="#ffffff"
     bordercolor="#000000"
     borderopacity="0.25"
     inkscape:showpageshadow="2"
     inkscape:pageopacity="0.0"
     inkscape:pagecheckerboard="0"
     inkscape:deskcolor="#d1d1d1"
     inkscape:zoom="2.8849957"
     inkscape:cx="49.566799"
     inkscape:cy="42.981"
     inkscape:window-width="1850"
     inkscape:window-height="1016"
     inkscape:window-x="0"
     inkscape:window-y="0"
     inkscape:window-maximized="1"
     inkscape:current-layer="Search" /><g
     id="g7"
     transform="matrix(0.49586234,0,0,0.49586234,-5.7152474,-11.531686)"><g
       transform="matrix(0.40499438,-0.40499438,0.40499438,0.40499438,-52.783992,100.91673)"
       id="g2"
       style="clip-rule:evenodd;fill-rule:evenodd;stroke-linejoin:round;stroke-miterlimit:2;stroke:#000000;stroke-opacity:1;fill:none">
        <g
   id="Search"
   style="stroke:#000000;stroke-opacity:1;fill:none">
            <path
   d="M 167.582,287.681 C 101.564,283.702 49.176,228.827 49.176,161.813 c 0,-69.596 56.503,-126.099 126.099,-126.099 69.596,0 126.099,56.503 126.099,126.099 0,67.014 -52.389,121.889 -118.407,125.868 l 0,31 h 3.297 c 6.065,0 10.989,4.924 10.989,10.989 l 0,125.275 c 0,6.065 -4.924,10.989 -10.989,10.989 l -21.978,0 c -6.065,0 -10.989,-4.924 -10.989,-10.989 V 329.67 c 0,-6.065 4.924,-10.989 10.989,-10.989 h 3.296 z m 7.693,-226.692 c 55.646,0 100.824,45.178 100.824,100.824 0,55.647 -45.178,100.824 -100.824,100.824 -55.647,0 -100.824,-45.177 -100.824,-100.824 0,-55.646 45.177,-100.824 100.824,-100.824 z"
   style="fill:none;stroke:#000000;stroke-opacity:1;stroke-width:3.52107179;stroke-dasharray:none"
   id="path1"
   sodipodi:nodetypes="csssccssssssssccsssss" />
        <text
   xml:space="preserve"
   style="font-size:56.3371px;line-height:0.9;font-family:'Linux Libertine';-inkscape-font-specification:'Linux Libertine';text-align:center;text-anchor:middle;fill:none;stroke:#000000;stroke-width:3.52107;stroke-linejoin:round;stroke-miterlimit:0.1;stroke-dasharray:none;stroke-opacity:1"
   x="235.24802"
   y="-44.516338"
   id="text1"
   transform="rotate(45)"><tspan
     sodipodi:role="line"
     id="tspan1"
     style="font-size:56.3371px;fill:#000000;fill-opacity:1;stroke:none;stroke-width:3.52107;stroke-dasharray:none"
     x="235.24802"
     y="-44.516338">1 0 0 1</tspan></text><text
   xml:space="preserve"
   style="font-size:56.3371px;line-height:0.9;font-family:'Linux Libertine';-inkscape-font-specification:'Linux Libertine';text-align:center;text-anchor:middle;fill:none;stroke:#000000;stroke-width:0.834494;stroke-linejoin:round;stroke-miterlimit:0.1;stroke-opacity:1"
   x="235.24802"
   y="6.4238777"
   id="text2"
   transform="rotate(45)"><tspan
     sodipodi:role="line"
     id="tspan2"
     style="font-size:56.3371px;fill:#000000;fill-opacity:1;stroke-width:0.834494"
     x="235.24802"
     y="6.4238777">1 1 0 1</tspan></text><text
   xml:space="preserve"
   style="font-size:56.3371px;line-height:0.9;font-family:'Linux Libertine';-inkscape-font-specification:'Linux Libertine';text-align:center;text-anchor:middle;fill:#000000;stroke:none;stroke-width:0.834494;stroke-linejoin:round;stroke-miterlimit:0.1;stroke-opacity:1;fill-opacity:1"
   x="235.24802"
   y="57.364094"
   id="text3"
   transform="rotate(45)"><tspan
     sodipodi:role="line"
     id="tspan3"
     style="font-size:56.3371px;stroke-width:0.834494;stroke:none;fill:#000000;fill-opacity:1"
     x="235.24802"
     y="57.364094">0 1 0 0</tspan></text></g>
    </g></g></svg>
